<?xml version="1.0" standalone="no"?>
<!DOCTYPE svg PUBLIC "-//W3C//DTD SVG 20010904//EN"
 "http://www.w3.org/TR/2001/REC-SVG-20010904/DTD/svg10.dtd">
<svg version="1.0" xmlns="http://www.w3.org/2000/svg"
 width="260.000000pt" height="260.000000pt" viewBox="0 0 260.000000 260.000000"
 preserveAspectRatio="xMidYMid meet">
<metadata>
Created by potrace 1.11, written by Peter Selinger 2001-2013
</metadata>
<g transform="translate(0.000000,260.000000) scale(0.100000,-0.100000)"
fill="#000000" stroke="none">
<path d="M2305 2291 c-56 -20 -156 -77 -227 -128 -25 -18 -75 -73 -111 -121
-108 -147 -395 -555 -551 -785 -81 -120 -150 -216 -153 -213 -3 3 -18 135 -34
293 -30 296 -71 640 -90 751 l-11 62 -34 -30 -34 -30 -133 6 c-234 11 -325
-24 -471 -177 -86 -92 -132 -160 -174 -261 -36 -87 -37 -213 -4 -311 13 -37
28 -67 33 -67 5 0 48 28 96 62 49 34 89 62 90 62 1 1 -14 41 -33 88 -40 99
-52 191 -35 256 17 63 80 126 149 152 66 25 197 36 294 26 l66 -7 -58 -227
c-98 -382 -187 -685 -226 -769 -31 -64 -90 -118 -146 -134 -28 -7 -80 -9 -154
-5 l-110 7 -56 -88 -55 -88 81 -3 c174 -6 312 43 415 148 70 73 115 147 158
262 31 83 143 486 188 681 10 42 21 77 25 77 6 0 90 -913 92 -1000 0 -30 3
-68 7 -84 l6 -29 58 47 c45 37 66 65 98 128 59 117 159 278 369 593 203 306
250 373 250 359 0 -18 -54 -231 -170 -671 -66 -248 -120 -463 -120 -477 0 -32
32 -66 63 -66 13 0 72 9 133 20 60 11 156 27 214 35 98 14 107 17 132 47 15
17 27 33 25 33 -1 1 -47 -1 -102 -5 -120 -8 -162 0 -194 36 -41 49 -33 95 129
744 123 490 177 657 221 680 21 12 105 9 163 -6 21 -5 31 4 76 63 50 66 51 68
28 74 -44 13 -123 8 -173 -10z"/>
</g>
</svg>
